<?xml version="1.0" encoding="utf-8"?>
<!-- Generator: Adobe Illustrator 16.0.0, SVG Export Plug-In . SVG Version: 6.00 Build 0)  -->
<!DOCTYPE svg PUBLIC "-//W3C//DTD SVG 1.1//EN" "http://www.w3.org/Graphics/SVG/1.1/DTD/svg11.dtd">
<svg version="1.1" xmlns="http://www.w3.org/2000/svg" xmlns:xlink="http://www.w3.org/1999/xlink" x="0px" y="0px" width="35px"
	 height="35px" viewBox="0 0 35 35" enable-background="new 0 0 35 35" xml:space="preserve">
<g id="Layer_2">
	<path id="Blue_2_" fill="#3D5B9A" d="M31.833,33.054c0.981,0,1.776-0.795,1.776-1.777V2.634c0-0.981-0.795-1.777-1.776-1.777H3.19
		c-0.981,0-1.777,0.795-1.777,1.777v28.643c0,0.981,0.795,1.777,1.777,1.777H31.833z"/>
	<path id="f_1_" fill="#FFFFFF" d="M23.628,33.054V20.585h4.184l0.628-4.859h-4.812v-3.102c0-1.408,0.391-2.366,2.408-2.366l2.572,0
		V5.911c-0.444-0.059-1.972-0.192-3.748-0.192c-3.709,0-6.252,2.265-6.252,6.424v3.583h-4.193v4.859h4.193v12.469H23.628z"/>
</g>
<g id="Layer_1" display="none">
	<g display="inline">
		<defs>
			<rect id="SVGID_1_" x="1.167" width="33.833" height="33.833"/>
		</defs>
		<clipPath id="SVGID_2_">
			<use xlink:href="#SVGID_1_"  overflow="visible"/>
		</clipPath>
		<path clip-path="url(#SVGID_2_)" fill="#FFFFFF" d="M35,16.917c0,9.343-7.575,16.917-16.915,16.917
			c-9.344,0-16.918-7.574-16.918-16.917C1.167,7.574,8.741,0,18.085,0C27.425,0,35,7.574,35,16.917"/>
		<path clip-path="url(#SVGID_2_)" fill="#BD2026" d="M18.062,1.275C9.424,1.275,2.42,8.279,2.42,16.917
			c0,6.626,4.124,12.286,9.941,14.565c-0.136-1.238-0.26-3.136,0.057-4.487c0.283-1.22,1.833-7.775,1.833-7.775
			s-0.468-0.938-0.468-2.322c0-2.175,1.261-3.798,2.831-3.798c1.334,0,1.979,1.001,1.979,2.204c0,1.342-0.854,3.348-1.295,5.208
			c-0.369,1.557,0.779,2.826,2.313,2.826c2.782,0,4.919-2.931,4.919-7.162c0-3.746-2.692-6.364-6.534-6.364
			c-4.45,0-7.063,3.338-7.063,6.788c0,1.344,0.52,2.786,1.165,3.569c0.127,0.156,0.146,0.291,0.107,0.449
			c-0.117,0.495-0.382,1.557-0.434,1.774c-0.067,0.286-0.228,0.348-0.521,0.209c-1.956-0.909-3.179-3.765-3.179-6.059
			c0-4.934,3.587-9.465,10.336-9.465c5.427,0,9.643,3.865,9.643,9.033c0,5.392-3.398,9.729-8.115,9.729
			c-1.585,0-3.075-0.823-3.587-1.796c0,0-0.781,2.986-0.973,3.718c-0.354,1.359-1.309,3.061-1.945,4.099
			c1.464,0.455,3.02,0.7,4.631,0.7c8.639,0,15.642-7.004,15.642-15.642C33.703,8.279,26.7,1.275,18.062,1.275"/>
	</g>
</g>
<g id="Layer_3" display="none">
	
		<radialGradient id="SVGID_3_" cx="-203.353" cy="-160.3193" r="16.2152" gradientTransform="matrix(0 -1.982 -1.8439 0 -285.4322 -366.96)" gradientUnits="userSpaceOnUse">
		<stop  offset="0" style="stop-color:#FEDD56"/>
		<stop  offset="0.1" style="stop-color:#FEDD56"/>
		<stop  offset="0.5" style="stop-color:#F15843"/>
		<stop  offset="1" style="stop-color:#BB469A"/>
	</radialGradient>
	<path display="inline" fill="url(#SVGID_3_)" d="M17.788,1.157c-6.771,0-8.751,0.007-9.136,0.04C7.263,1.312,6.397,1.53,5.456,2
		C4.729,2.36,4.157,2.778,3.593,3.363C2.563,4.432,1.94,5.746,1.714,7.308c-0.11,0.759-0.142,0.914-0.148,4.787
		c-0.003,1.292,0,2.991,0,5.27c0,6.766,0.008,8.744,0.04,9.127c0.112,1.353,0.325,2.203,0.773,3.133
		c0.858,1.782,2.497,3.119,4.429,3.618c0.668,0.171,1.406,0.267,2.354,0.311c0.401,0.018,4.495,0.031,8.591,0.031
		s8.192-0.005,8.584-0.025c1.099-0.051,1.735-0.137,2.44-0.319c1.943-0.501,3.552-1.818,4.428-3.625
		c0.44-0.908,0.662-1.792,0.765-3.073C33.991,26.263,34,21.809,34,17.36s-0.011-8.896-0.031-9.175
		c-0.103-1.302-0.325-2.178-0.78-3.104C32.816,4.324,32.401,3.758,31.8,3.18c-1.073-1.024-2.385-1.648-3.948-1.874
		c-0.757-0.109-0.908-0.143-4.786-0.149H17.788z"/>
	
		<radialGradient id="SVGID_4_" cx="157.6553" cy="167.8042" r="16.2149" gradientTransform="matrix(0.1739 0.8687 3.5818 -0.7172 -632.3355 -13.119)" gradientUnits="userSpaceOnUse">
		<stop  offset="0" style="stop-color:#4270B7"/>
		<stop  offset="0.128" style="stop-color:#4270B7"/>
		<stop  offset="1" style="stop-color:#5E53A3;stop-opacity:0"/>
	</radialGradient>
	<path display="inline" fill="url(#SVGID_4_)" d="M17.788,1.157c-6.771,0-8.751,0.007-9.136,0.04C7.263,1.312,6.397,1.53,5.456,2
		C4.729,2.36,4.157,2.778,3.593,3.363C2.563,4.432,1.94,5.746,1.714,7.308c-0.11,0.759-0.142,0.914-0.148,4.787
		c-0.003,1.292,0,2.991,0,5.27c0,6.766,0.008,8.744,0.04,9.127c0.112,1.353,0.325,2.203,0.773,3.133
		c0.858,1.782,2.497,3.119,4.429,3.618c0.668,0.171,1.406,0.267,2.354,0.311c0.401,0.018,4.495,0.031,8.591,0.031
		s8.192-0.005,8.584-0.025c1.099-0.051,1.735-0.137,2.44-0.319c1.943-0.501,3.552-1.818,4.428-3.625
		c0.44-0.908,0.662-1.792,0.765-3.073C33.991,26.263,34,21.809,34,17.36s-0.011-8.896-0.031-9.175
		c-0.103-1.302-0.325-2.178-0.78-3.104C32.816,4.324,32.401,3.758,31.8,3.18c-1.073-1.024-2.385-1.648-3.948-1.874
		c-0.757-0.109-0.908-0.143-4.786-0.149H17.788z"/>
	<path display="inline" fill="#FFFFFF" d="M17.78,5.398c-3.252,0-3.659,0.014-4.938,0.072c-1.273,0.059-2.144,0.261-2.905,0.557
		c-0.789,0.306-1.455,0.714-2.122,1.38C7.15,8.073,6.74,8.741,6.434,9.528c-0.296,0.762-0.499,1.632-0.556,2.906
		c-0.058,1.277-0.072,1.686-0.072,4.938c0,3.252,0.014,3.659,0.072,4.936c0.058,1.275,0.26,2.145,0.557,2.906
		c0.305,0.787,0.715,1.455,1.38,2.121c0.667,0.667,1.334,1.077,2.121,1.383c0.763,0.296,1.633,0.498,2.907,0.556
		c1.277,0.058,1.685,0.072,4.937,0.072s3.658-0.014,4.937-0.072c1.273-0.058,2.146-0.26,2.906-0.556
		c0.788-0.306,1.455-0.716,2.121-1.383c0.665-0.666,1.074-1.333,1.381-2.121c0.295-0.762,0.497-1.631,0.558-2.906
		c0.057-1.277,0.072-1.685,0.072-4.937c0-3.251-0.016-3.66-0.072-4.938c-0.061-1.274-0.263-2.145-0.558-2.906
		c-0.307-0.787-0.716-1.455-1.381-2.121c-0.666-0.666-1.333-1.075-2.121-1.38c-0.764-0.296-1.635-0.498-2.908-0.557
		c-1.278-0.058-1.684-0.072-4.937-0.072H17.78z M16.706,7.556c0.319,0,0.675,0,1.074,0c3.197,0,3.576,0.012,4.839,0.069
		c1.168,0.054,1.801,0.249,2.223,0.413c0.559,0.217,0.957,0.476,1.377,0.896c0.419,0.418,0.678,0.818,0.896,1.376
		c0.163,0.422,0.358,1.055,0.412,2.223c0.059,1.262,0.07,1.642,0.07,4.837c0,3.196-0.012,3.575-0.07,4.837
		c-0.054,1.167-0.249,1.802-0.412,2.223c-0.217,0.559-0.477,0.957-0.896,1.375c-0.42,0.419-0.818,0.679-1.377,0.896
		c-0.421,0.165-1.055,0.359-2.223,0.413c-1.262,0.058-1.642,0.069-4.839,0.069s-3.575-0.012-4.839-0.069
		c-1.167-0.054-1.801-0.249-2.224-0.413c-0.559-0.218-0.957-0.477-1.377-0.896c-0.418-0.419-0.679-0.818-0.896-1.376
		c-0.164-0.422-0.358-1.056-0.412-2.223c-0.058-1.262-0.069-1.641-0.069-4.838c0-3.198,0.012-3.575,0.069-4.837
		c0.054-1.167,0.248-1.801,0.412-2.223c0.217-0.559,0.478-0.958,0.896-1.377c0.42-0.419,0.818-0.678,1.377-0.896
		c0.423-0.165,1.057-0.359,2.224-0.413c1.105-0.05,1.533-0.065,3.765-0.067V7.556z M24.172,9.544c-0.793,0-1.437,0.643-1.437,1.437
		c0,0.793,0.644,1.436,1.437,1.436s1.438-0.643,1.438-1.436C25.609,10.188,24.965,9.543,24.172,9.544L24.172,9.544z M17.78,11.223
		c-3.396,0-6.149,2.753-6.149,6.149s2.754,6.148,6.149,6.148c3.396,0,6.148-2.752,6.148-6.148S21.176,11.223,17.78,11.223
		L17.78,11.223z M17.78,13.381c2.204,0,3.991,1.787,3.991,3.991c0,2.204-1.787,3.991-3.991,3.991s-3.991-1.787-3.991-3.991
		C13.789,15.167,15.576,13.381,17.78,13.381z"/>
</g>
<g id="Layer_4" display="none">
	<path display="inline" fill-rule="evenodd" clip-rule="evenodd" fill="#00AEEF" d="M16.199,10.386
		c1.083-3.381,2.408-5.573,3.932-7.161c1.137-1.186,1.724-1.562,1.055-0.257c0.295-0.236,0.72-0.55,1.049-0.718
		c1.844-0.87,1.713-0.141,0.443,0.641c3.467-1.24,3.346,0.339-0.32,1.126c2.997,0.056,6.186,1.964,7.102,6.021
		c0.127,0.562-0.025,0.509,0.551,0.61c1.241,0.22,2.408,0.207,3.547-0.155c-0.123,0.839-1.232,1.385-2.961,1.745
		c-0.642,0.134-0.772,0.099-0.004,0.271c0.945,0.213,2.003,0.268,3.122,0.215c-0.87,1.003-2.261,1.516-3.979,1.537
		c-1.075,3.925-3.53,6.734-6.638,8.499C15.8,26.901,5.178,26.3-0.149,18.772c3.496,2.744,8.674,3.348,12.521-0.475
		c-2.521,0-3.174-1.887-1.176-2.906c-1.891-0.019-3.093-0.617-3.799-1.701c-0.268-0.411-0.27-0.442,0.167-0.758
		c0.479-0.348,1.134-0.502,1.812-0.554c-1.959-0.561-3.154-1.583-3.57-2.955C5.668,8.969,5.646,8.993,6.108,8.876
		c0.452-0.115,1.033-0.175,1.554-0.202c-1.539-0.933-2.457-2.075-2.69-3.339C4.75,4.142,4.979,4.449,5.871,4.79
		C9.863,6.317,13.844,7.957,16.199,10.386L16.199,10.386z"/>
	
		<rect id="_x3C_Slice_x3E_" x="0.282" y="-3.916" display="inline" fill-rule="evenodd" clip-rule="evenodd" fill="none" width="35" height="35"/>
</g>
</svg>
